<svg width="84" height="42" viewBox="0 0 84 42" fill="none" xmlns="http://www.w3.org/2000/svg">
<path d="M37.8408 42H6.81031C2.08258 42 -1.20267 37.3181 0.41925 32.9039L11.2034 3.60887C12.0016 1.44061 14.067 0 16.3775 0H38.6138C40.9466 0 43.1207 1.19451 44.3699 3.15789L56.5792 22.3936C57.504 23.849 59.6988 23.6224 60.3061 22.016L68.6366 0H84L69.9825 37.5858C68.9955 40.2426 66.4487 42 63.6052 42H53.6666C51.3269 42 49.1459 40.8055 47.9036 38.8284L28.5717 8.21053C27.6468 6.74828 25.4452 6.97483 24.8378 8.59497L16.3486 31.4073C15.8448 32.7666 16.8524 34.2082 18.3087 34.2082H32.8508L37.8339 42H37.8408Z" fill="white"/>
</svg>
