<svg width="29" height="42" viewBox="0 0 29 42" fill="none" xmlns="http://www.w3.org/2000/svg">
<path d="M21.0619 8.91965C21.0619 7.84872 20.1935 6.98055 19.1225 6.98055H9.03752C7.96638 6.98055 7.09811 7.84872 7.09811 8.91965V19.0026C7.09811 20.0736 7.96638 20.9417 9.03752 20.9417H14.08V27.9223H9.03752C4.11049 27.9223 0.116211 23.9289 0.116211 19.0026V8.91965C0.116211 3.99345 4.11049 0 9.03752 0H19.1225C24.0496 0 28.0438 3.99345 28.0438 8.91965V13.9612H21.0619V8.91965Z" fill="white"/>
<path d="M0 32.964V27.9226H7.21477V32.964C7.21477 33.9708 8.03082 34.7867 9.0377 34.7867H19.1227C20.1296 34.7867 20.9457 33.9708 20.9457 32.964V22.881C20.9457 21.8742 20.1296 21.0583 19.1227 21.0583H14.0802V13.845H19.1227C24.114 13.845 28.1604 17.8906 28.1604 22.881V32.964C28.1604 37.9544 24.114 42 19.1227 42H9.0377C4.0464 42 0 37.9544 0 32.964Z" fill="white"/>
</svg>
